<?xml version="1.0" encoding="UTF-8"?><svg id="Layer_1" xmlns="http://www.w3.org/2000/svg" viewBox="0 0 500 185.3"><defs><style>.cls-1{fill:#e2dac9;}</style></defs><path class="cls-1" d="m100.64,104.34l-3.45,10.03-2.78,4.75-3.05,3.96-3.71,3.7-6.5,4.62-2.25,1.06-2.78.92-2.39,1.32-7.82,1.58-9.28.66-6.63-.53-2.52-.13-2.39-.53-2.65-.92-2.39-.53-5.97-2.51-5.7-3.04-5.97-5.15-5.44-5.81-5.7-11.48-1.86-7.52-.79-9.64,1.33-11.35,1.33-5.41,3.31-7.39,2.52-3.83,3.58-4.49,5.7-5.15,3.85-2.9,9.81-4.62,12.86-2.51,8.22.13,2.65.4,2.52.13,12.73,4.22,9.02,5.68,3.71,3.83,1.46,2.51,1.86,2.24,1.19,2.11,1.46,2.11.8,2.77.93,2.38.8,2.9-.93,2.64-2.25,1.06-3.98.4-3.71-.4-2.65.13-2.78-.13-2.39.26-3.05-1.45-2.52-2.51-1.46-1.98-3.84-3.83-1.86-1.45-2.39-.92-4.11-1.19-5.7-.26-8.88,1.19-3.58,1.98-3.18,2.51-3.18,3.7-1.33,2.51-1.99,4.75-.93,5.28v8.05l.4,2.9.66,2.38.93,1.85.93,2.64,2.92,4.62,3.85,3.43,4.64,2.38,4.77,1.72,3.84.4,7.03-.4,4.64-2.51,1.99-.79,2.12-1.85,3.05-3.43,1.33-2.51,2.12-2.11,3.05-1.58,2.65.13,2.65-.13,2.65.4,7.42-.53,2.65,1.72.79,2.38ZM15.26,83.61l-.13-.26h-.4v.53l.53-.26Zm1.06-5.54l-.13-.26-.26-.13.4.4Zm2.39-5.68l-.27-.66-.4.53-.26.53-.53.79,1.06-.26.4-.92Zm-1.19-4.09l.13.26.53-.13.4-.79-.53-.13-.4.66-.13.13Zm1.59-4.49l.8-.26.93.26h1.06l-.13-1.06-1.86.13-.8.4v.53Zm.4,2.9l.53.66.26-.4-.66-.53-.26-.13.13.4Zm68.54,42.51l-1.86.26-3.98,4.62-1.72,1.58-1.86,2.24-6.76,4.36-2.52.66-2.52.92-6.89.79-3.18-.26-4.11.4-2.52-.4-9.68-3.7-2.52-1.45-6.1-4.75-3.05-3.83-3.98-7.26-.66-2.64-.26-2.38-1.19-4.75.13-11.22,1.19-5.02,2.25-4.88.79-2.38,1.59-1.85,3.18-4.62,1.86-1.58,2.25-1.32,2.12-1.72,2.25-1.45,2.52-.79,2.39-1.06,2.52-.79,6.36-.92,6.89-.26,2.65.79,2.65.4,4.91,1.32,2.52,1.06,4.38,2.64,1.86,1.85,3.31,4.09,2.39,2.24h1.72l-.53-2.24-1.33-2.11-1.99-2.38-3.71-3.43-4.38-2.64-2.25-.66-4.77-2.38-2.25-.79h-3.84l-5.57-.53-9.15.92-2.52,1.19-2.25.79-2.65.53-2.12,1.45-4.51,2.51-6.89,7.39-1.59,2.38-3.18,6.86-.79,2.64-.4,2.64-.66,2.38-.4,10.43,1.59,8.18,1.86,5.54,1.46,1.98,1.33,2.51,4.77,6.2,5.57,3.96,5.97,3.3,10.34,2.9,3.98-.4,4.51.26,10.47-2.24,5.97-3.17,3.18-2.38,5.44-5.68,1.59-2.38.4-2.51ZM20.17,69.22l-.53.13.13.53h.53l-.13-.66Zm0-7.52l.93.26.79-1.06.4-.13,1.19.79.53.53-.8,1.32.13.92h-1.06l.13,1.06.53.13,1.46-.4.53-.4.4-.53.13-.66v-.79l-.13-.66v-.66l-.26-.13-.4.13-.4-.53.53-.4h.8v-1.19h-.93l-.13.53-1.06.26-.66-.13-.8.13-1.19.4.13.66-.8.53Zm1.19,6.6h-.53l.13.4h.53l-.13-.4Zm.8-1.98v.53h.4l.13-.53h-.53Zm.53,51.22l-.27-.26v.4l.27.13v-.26Zm1.59,2.24l-.13-.13-.26.13-.4-.13-.53.13.53.13.79-.13Zm-.79-61.91l.79.13.13-.66-.53-.13-.4.66Zm2.78,61.25l-.53.13.13.53.4-.13v-.53Zm-.4-62.17l.4.13v-.53h-.27l-.13.4Zm1.06,1.85l.8.66,1.46-.66-.79-1.45.53-1.19-1.06-.13-.13,1.06v.79l-.8.92Zm.8-3.7l.4-.4v-.4l-.4.26v.53Zm1.06,33.66h-.53l.27.4h.53l-.27-.4Zm-.26-36.04l.79-.13.4.13-.4-.4h-.66l-.13.4Zm.93,32.34l-.13.13.27.13.13-.26h-.27Zm.4-4.88v.4l.4-.13v-.4l-.4.13Zm.13-27.32l.13.53.4.53.66-.66-.53-.26-.66-.13Zm1.33,24.55l-1.06.26.26.26.93.26-.13-.79Zm.13-4.62l-.79-.13v.53l.66-.13.13-.26Zm.27-1.58l.8.13.66-1.06-.13-1.06-1.06.26-.4.53-.26.53.4.66Zm.27-17.03l1.06.13,1.46-.26.4-.66.13-.66.13-.79-.53.53-.4.66-.27.92h-.66l-.66-.26-.66.4Zm.13,49.1l.13.26.27-.13-.4-.13Zm.53,2.24l-.53.4h.66l1.19-.13.53-.53h-.79l-1.06.26Zm1.06-38.02l-.27-.26.13.4.13-.13Zm1.72,4.36l-.79-.53-.66.26.53.26h.93Zm-1.19,38.15l.53.26.4.13-.27-.66-.66.26Zm2.52-40.92l-.13-.66-1.33.26-.27.66-.4.26h.4l.66-.4,1.06-.13Zm-1.46-4.36l.26-.26v-.4l-.4.26.13.4Zm2.25,62.31l-.13-.4h-.53l.13.53.53-.13Zm-.4-77.35l.27,1.06h.93l.66-.4.8.26.13.79v.26l.27-.13-.4-.92-.93-.79-1.33.26-.4-.4Zm1.19,14.26l-.53-.13-.13.53.53.13.13-.53Zm1.06,49.37l-.26.66.66.66.26-.79-.79-.79.13.26Zm.13-64.42l.53.13.13-.53-.53-.26-.13.66Zm1.19,17.16l-.26-.66-.66.13.26.66.66-.13Zm.53,46.99l.27.26v-.13l-.27-.26v.13Zm.53,1.85l-.26.13.26.26.13-.13-.13-.26Zm.13,16.76l-.27-.13-.13.26h.4v-.13Zm.8-67.72l-.27-.26-.53-.13-.13.13.53.26h.4Zm-.13-14.92l.26.53.53.4.8.13-.53-.66-.4-.26-.66-.13Zm.4,70.36l.4-.13.13-.66-.53.13v.66Zm2.52-57.29h-1.19l-.66.79.93.13.66-.26.27-.66Zm-.8-14.65l.53.13.13-.4h-.4l-.27.26Zm.66,82.5h-.27l-.26.4h.4l.13-.4Zm-.27-9.9l.53.13h.13l-.79-.4.13.26Zm1.06,11.22l-.4-.13-.13.26.4.13.13-.26Zm-.13-14.26l.79.26.53-.4.53.4.4-.13-.27-.26h-.66l-.66-.4-.66.53Zm2.12,2.38l.26-.4-1.06.13-1.06,1.06.93.26.53.13,1.99.92.66.13.66-.13,1.19-.13,1.19.53,1.19-.26-.13-.66-.93-.13-.53-.4.66-1.06.27-.53-.53.4-.66.13-1.19.4-.53.79h-.53l-.93-.79-.53-.13-.93-.26Zm-1.33-73.26h.27l.26-.26h-.4l-.13.26Zm.53,3.43l-.26-.13.13.26h.26l-.13-.13Zm.27,9.11l.26-.26-.53.13-.13.26.4-.13Zm1.59,3.3l.66.13-.4-.79.26-.92-.79,1.06-.66.4-.53-.53-.4.4.8.66,1.06-.4Zm-.66,69.7l-.13-.26-.26.13v.26l.4-.13Zm1.19-84.22l.27.66,1.46-.13.8-1.32-.27-.66-.13-.53h-.79l-1.33.66v1.32Zm.53,14.52l-.4.13h.13l.26-.13Zm.27-15.18l-.4-.13.13-.26h.4l-.13.4Zm.53,86.2l.26-.4-.26-.26-.13.26.13.4Zm.93,1.32l-.26-.26-.13.26.26.13.13-.13Zm1.86-73.39l-.27-.13-.26.13.26.13.27-.13Zm0-13.46l.66.66,1.19-1.19.79-.26.66.26.53.13.66-.4.66.13v.66l.93,1.06.8.26.53.92.79-.53-.66-1.06v-.4l.93-.13-.13-.79-.79.26-.66-.26-.13-1.06-.27-.66-.53-.53-.66-.13-.27.66-.13.66-.79.4-1.33.26-1.46-.13-.53.26-.79.92Zm.79,84.88l-.26-.13-.27.4.53.13v-.4Zm.4-72.6l-.53-.13.13.26h.4v-.13Zm-.4-15.18l.8.13v-.66l-.66-.13-.13.66Zm1.59,88.97l-.93.4v.79l.8-.4.13-.79Zm-.8-14.12l.4.53.93.66.53.26.93-.92.66-.26.66-.13h.79l.66-.13,1.19-.26.13-1.06-.53-.26-2.52.53-.66.13h-2.12l-.66-.26-.4,1.19Zm.93-70.89l.13.26.4-.26h-.53Zm.4,71.55l-.13-.79.66.4-.53.4Zm1.72-60.33h-1.19l-.13.92h1.06l.27-.92Zm-.8,59.14h-.53l.53-.26v.26Zm.27-60.59v-.92l-.66.26v.66h.66Zm-.27,63.76l-.4.13.13.26.4-.13-.13-.26Zm4.38,10.3l-.53-.66h-1.06l-.79-.13-.93.4-.13.4h1.06l.13.66-.79.13-.4.53.8.26.53-.53.8-.26h.66l.66-.79Zm-1.72-73.53l-.93-.66-.4-.53.13.53.26.92.66.4.26-.66Zm-1.19,62.97l-.13.53h.53l.13-.4-.53-.13Zm3.31-1.98l-1.19.4-.53.53h-.66l-.53.13.79.13.8-.13v.92l.53.79.4-.66-.53-.66.27-.26.93.4.8-.53-.53-.92-.53-.13Zm0-58.48l-.13-.79-.66-.4-1.06-.13.4.79.53.26.93.26Zm-1.19-13.86l-.27.26v-.4l.27.13Zm.26,83.43l.27-.53-.4-.26-.4.53.53.26Zm2.39-72.87l-.26-.13v.26l.26.13v-.26Zm0-10.16h.93l.53-.26.53-.4v-1.19h-1.33l-.53.53-.13,1.32Zm.53,85.14l.66-.26-.4-.4-.8.13.53.53Zm-.4-13.07l.13.53,1.06.4.53.66.4-.26-.26-.4-.66-.13-.13-.53,1.06-.13,1.33.26.66.26-.53-.53-.8-1.06-.27-.79-.93-.4-.13.66-.4.53-.66.13-.4.79Zm.53,10.69l.13-.26h-.27l.13.26Zm.93-72.34l-.4-.53h-.4l.13.66.66-.13Zm1.19-10.3l.27,1.45.53.53.66.4.66.13,1.06.4.13-.66-.93-.4-.53-.4-.13-.79-.13-1.32-.4-.4-.26-.66v-.66l-.66-.26.26.79v1.32l-.53.53Zm.53,9.77l-.53.13.13.4h.4v-.53Zm.8,3.43l-.4.13-.13.4.4-.13.13-.4Zm1.06,56.23l.66.53h.66l.93.13h1.19l-.4-.66-.53-.4-.66-.13h-.8l-.66-.13-.4.66Zm4.51-56.63l-.53-.53-1.19-.53-.4.4h-.93l-.79.26.66.79,1.06-.53v1.06l-.27.53-.79.4-.8-.13-.4.26.53.4.79-.4.8.26.8.13.13.26.66-.26.27-.53.13-.66.27-.53v-.66Zm-4.11,58.35l-.26.4.53.26.26-.4-.53-.26Zm1.86,10.69l-1.06.13-.27,1.19-.26.79.93-.13.4-.53.27-.53v-.92Zm-1.33-81.97h.8l.26-.4.27-.79-.8.26-.53.92Zm.53,67.32l.53.66.8-.66.4-.4.66-.26-.13-.53-.66.53-.66.26-.93.4Zm1.99-65.08l-.66.13-.53.26.26,1.19,1.33-.13,1.06.26.27-.79-.66-.66.53-.53,1.06.53,1.06-.53.4.4-.66,1.06-.27.66.4.26.66.13,1.33.13,1.06.79.13.53.79.13.53.4.66.4.13.53h-1.06l-.13.92,1.06.13.53.4.27-.66.53-.13.66.26.53.4.4.53-.26.66-.13.4.26-.26.66-.26.66.26.4.26-.4.4-.53.4.4,1.32.8.13.8-.13-.13-.66-.27-.79.4-.53.4-.4.13-1.06-.66-.92h-.66l.4.66.8.26-.53.13h-.66l-.66.13h-.53l-.4-.79.26-.66-.53-1.06v-.92l-.79-.4-.66.92-.53.4-.13-.79-.13-.53h-1.46l-.93-.53-.53-.53-.26-.79-.53-.53-.53-1.32-.13-.66-.53-.26-.66.26-.66-.13-1.06.26-.66.13-.53-.13-.53-.26-.13-.79.93-.53-.66-.53-1.06,1.58.13,1.06.4.53Zm.53,15.18l-.27-.4-.4-.26.27.4.4.26Zm.26,50.03l.27.26.66-.13.13-.13-.13-.4.26-.13-.53.13-.66.4Zm1.06,15.05l-.13-.4h-.27l.13.53.27-.13Zm0-77.62l-.13.53h.53v-.53h-.4Zm3.58,10.3l-1.06-.66-1.33,1.32-.26-.66.26-.66-.79.26-.53.53v1.32l.66.26,1.46-.53h1.33l.26-1.19Zm-3.58,50.56l.4-.13v-.26h-.27l-.13.4Zm.93,14.12l-.27-.13-.13.26h.4v-.13Zm0-16.24l.53-.26h1.06l.66-.53-.8-.4-1.19.4-.26.79Zm1.33,17.16l-.4-.13-.13.4h.4l.13-.26Zm-.27-14.52l-.13.26.27.13.13-.26-.27-.13Zm1.19-48.58h-1.06l-.13,1.19h1.06l.13-1.19Zm.13,46.86l.26-.53-.4.26h-.8l-.4.13.53.53.8-.4Zm-.27,2.9l-.13.4.27.13.13-.26-.27-.26Zm1.46,10.82l.93-.13-.53-.4h-.66l-.66.4.93.13Zm-.8-16.5l1.06-.13.27-.92-1.06.4-.27.66Zm1.46-39.2l-.53-.92-.4.92-.26.4-.13.92h1.19v-.66l.13-.66Zm1.59-2.51l-.8-.26-.8-.4-.79-.13v.92l1.06.79.66-.13.66-.79Zm-1.72-16.24l.53.13.13-.4-.4-.13-.26.4Zm.26,14.26l.4-.13-.13-.53-.53.13.26.53Zm-.13,40.92h.27l.13-.4h-.4v.4Zm.53,18.22l.27-.13-.13-.13h-.4l.26.26Zm2.39,2.38l-.53-.53-.66-.13.53-.53.13-.53-.53.4-.53.53-.8-.4,1.59,1.32.79-.13Zm-1.72-17.82l.53.26-.4-.26h-.13Zm.13,1.45v.26l.27.13v-.4h-.27Zm4.38-38.28l-.53-.66.4-.79-.66-.53-.93.13-.53.13-.79.66-.66.13v.53l.53.79v.4l.66-.26.4-.53.66-.26.8.92.66-.66Zm-2.65-3.17l-.13-.79h-.66l-.13.66.93.13Zm-.93,1.32h.4l.13-.26-.4-.26-.13.53Zm.53-19.67l.13.4.8.4-.13-.79h-.79Zm2.12,52.01l.27.4.26-.13v-.26h-.53Zm.66-49.63l.13.92.93.26-.13-.79-.93-.4Zm.66,66.27l-.13-.53-.4.13.13.53.4-.13Zm.26-12.01l.13.53.4-.26v-.66l-.53.4Zm.53,14.39l-.26-.26h-.13l.13.26h.26Zm2.39-48.05l-.53-.66-.53-.53-1.06-.13.26.79.53.4,1.06.53.27-.4Zm-1.72-2.64l.93-.26v-1.06l-1.06.13.13,1.19Zm.66-10.96l.79.66h.66l.53-.26.53-.4.4-.66v-.13l-.53.53-.53.13-.66-.13-.8-.53-.4.79Zm.79,46.07l-.4-.13-.4.26.53.13.26-.26Zm.13-44.49v-.26h-.4v.53l.4-.26Zm-.4.79l.13.26h.53l-.13-.26h-.53Zm4.24.92l-1.86.66-.93.4-.79.53-.53.53.53.26,1.33.4.13.66-.53,1.19-.4.53-.4.92.53.26v.26l-.53.53-.27.53.93.66h.66l.66.4.66.13h.66l.66-.13v.4h-.66l-.93.13-.13.4.79.53.8.13h.66l.66-.26,1.19-.13.13-.79-1.33-.26-.13-.53.4-.53.13-.79.13-.66-.4-.66-.66.13-1.59.4-.4.13-.13-.53,1.06-.4,1.33-.53.66-.13,1.06.13.26-.92-.93-.53-.13-.13-.53-.26h-.66l-.26.4-.13.66h-.4l-.27-.53-.53-.4-.79-.79.13-.53h-.66l-.66-.4.4-.66h.8l1.19.53.66-.13.53-.4.8-.66-.27-.53-1.06.26-.66.13Zm-3.05-5.54h.53v-.26l-.4.13-.13.13Zm.26,46.46h.53v-.4l-.66-.13.13.53Zm2.78,6.2l-.26-.4-.4-.26-.53-.4-.66-.4h-.66l.4.53.93.13.4.13.13.66h.66Zm-1.59-49.9l-.26.66-.27,1.06h1.19l.27-.66.13-.66.4-1.06-1.06.13-.4.53Zm.13,46.73l.27.66.79.26-.26-1.06-.8.13Zm1.06-39.21l-.66-.4.8-.26.53.26-.13.26-.53.13Zm4.38,38.41l-.4.13-.13.4.53-.13v-.4Zm-.4-35.11l.53.53v-.53h-.53Z"/><path class="cls-1" d="m197.43,131.79l-.53,2.77-2.39.79-8.22.26-4.64-.4-2.39.26-3.45-1.32-2.25-2.11-1.46-2.38-.66-2.38-2.78-2.11-4.38-1.45-6.23.26-2.78-.26h-2.39l-3.05.4-2.78-.4-7.42.13-2.65-.26-3.18,1.32-2.25,2.51-2.25,4.49-2.39,2.38-3.05,1.32-3.45-.4h-11.67l-2.65-.66-.66-2.77,1.59-5.54,1.19-2.64,1.59-2.11,3.85-9.64,3.71-6.86.93-2.64,1.19-2.11.8-2.77,1.86-3.43.93-2.51,1.99-3.43,2.12-4.75,1.46-2.38.66-2.24,7.42-16.63,1.46-2.38,5.7-11.88.8-2.38,2.52-2.38,4.24-1.32,4.51,1.19,2.39,2.51.79,2.51,1.19,1.98,2.12,5.02,2.65,4.88,1.99,4.62.66,2.11,2.39,5.02.79,2.51,2.65,4.62.66,2.51,1.33,2.24,1.06,2.24,1.46,2.38.79,2.64,1.19,1.98.93,2.64,1.19,2.24,1.06,2.64,1.46,2.11,1.86,4.88,1.33,2.24.93,2.51,2.25,4.75.79,2.51,1.33,1.98.8,2.64,1.72,2.24.93,2.38.8,3.3Zm-27.58-13.07l.27-.92-.53-.66-1.19.79-.66-.4-.53.13-.53.26-.4-1.06-1.33.13-.8.26-.79.66.79,1.45-.4.66-.66-.92-2.52-2.51-.4.79-.66-.13-.53-.79-.8-.4-1.72,1.32-3.18-1.32-2.12.13-1.06-.4-.13.66.93.26-1.19.66h-2.52l.27-.66h1.06l.4-.66-.66-.53-1.06.66-.66-.4-1.99.4-2.92-.26-2.25.26-1.72.53-.4-1.06-1.86.26-1.86.92-.4,1.58-.66.79-.93-.4-1.19.13.4-1.06.13-1.06-1.59-.13-.8,1.32-.53.79-.13.79-.93.66-.13-.92-1.59.53-.26,1.58,1.33.79.27,1.45h-1.72l-1.06,1.06h-.93l-1.72,2.77,1.19,1.58-.4.4-1.19-.79-1.19-1.45-.79.26-1.06-1.19-1.06-1.58h-.13l-.53-.4-.13-2.38-2.78-1.32-.93-1.19-.13,2.38-1.19,1.85.13.53-1.33,1.19-.66,1.58.13,1.45h-.27v.66l.93.4v-.66l.26-.26,1.06,1.06-.4,1.32-1.06.26.13.79,1.19.4.4-.66-.13-.79,2.25,1.98,1.06-.66,1.46.79,1.72-1.06,1.33.79,1.33-.53.4.4,1.99-.53,1.86-1.98.53-.66.26-1.06.8.26,1.19.92.93-1.32-.93-.13-.66.92-.13-1.06.26-1.72,1.19.92,1.19-.53-.4-2.11,1.33-.92.4.53.66.13.13-1.32.53-.92.66,1.06,1.72-.66,2.25-.53,1.59-.79.26.53,2.52.13h1.72l3.18-1.06,2.78,1.58,1.46-.53.53.13h1.72l-.53-1.72.66-.26,1.99,1.45,2.78.53,1.06-.4,2.78-.13.13.4.13-.4.13-.66h.27l.26-.26h.4l1.06.4,1.86.92-.13-1.58,1.33-.92.4,1.06-.13,1.45.66.26.4-.66,1.72-.79.4-1.98Zm-58.73,8.84l.93.66-.26.79-1.06-.79-.66-.66.4-.26.66.26Zm2.65-4.36l.53.26-.79,1.45-2.12,1.32-.27-.53,1.59-1.32,1.06-1.19Zm.13-7.26l.53-.13v.66l.66,1.98,1.72-.26,2.12-1.19-.53-.79.93-1.32.26-1.85.66-1.06.8-1.06,1.72-.92.8-2.64.66-2.51.4-1.45,1.72-2.51.53-1.85-.4-.13.13-1.72.13-1.19,1.33.13-1.46-.92-1.19.53.26-1.19,1.46.4,1.33-.53.53.13-.26.26.4-.13-.4-.66.53-.26v-.53l-.8-1.06-.79-.79.93-.4-.26-.79-.93-.26-.79.26-.53.26.53,1.06.66.66-.13.26.13.4-1.19.53-1.72.26.4.53-.53.79-1.19.4.8,1.06-1.72.79v1.85l-.66.92-.13.79-1.46,1.19.13,2.24-1.06.66-.13.92-.4.66-.79,2.11-.53,2.11v.79l-.27.26-.8.4.53,1.06,1.86.13-.13.53-.53.13h-.79l-.13.26.93.13-.26,1.06-1.59-.4-.8-.4h-.26l.13.92h-.66l-.4.4Zm0,3.04l.53,1.45,2.65.66-.13-1.72-1.86.13-1.06-.92-.13.4Zm1.99,8.45l.79.79-.26,1.19-.66-1.19-1.06-.66.4-.26.8.13Zm-.4-1.06l-.4-1.58,1.19.13-.13,1.06-.4,1.06-.27-.66Zm3.18-14.12l-1.06-1.19.66-.92.8.92-.4,1.19Zm53.56,1.72l3.18,1.06,2.39,2.38,2.25,4.49,2.78,4.49,1.72-.4-.4-2.11-4.38-9.9-1.46-2.24-2.25-4.88-.79-2.64-1.33-2.24-1.86-4.88-1.46-2.51-1.06-2.51-1.19-2.24-.8-2.51-1.33-2.24-.8-2.64-3.05-4.62-.53-2.51-7.82-16.9-1.72-2.64h-1.99l-3.84,7.26-3.05,7.39-1.46,2.38-3.98,9.64-3.85,7.39-.79,2.38-2.25,4.75-1.72,2.51-.66,2.24-6.63,14.65-1.59,2.51-.93,2.24-1.19,4.75,1.46.4,1.86-2.51,2.92-6.34,2.25-2.11,3.05-1.45,24.53.26,2.39.26,15.38-.4Zm-52.24,16.9l.4.53h-1.19l-.27-.66,1.06.13Zm.8-21.25h-.8l.4-.53h.66l-.27.53Zm.4-3.83l-.4-.13v-.79l.8.26-.4.66Zm1.06,20.2l.8,1.06-1.19.79.27-.53-.27-.53.4-.79Zm.53-23.63l-.79.4.13-.79.79-.53-.13.92Zm2.92,22.44l.93.13-.53.66-.4-.79Zm1.72-36.04l1.19-.4,1.59.79.93.79.66-1.19v-2.51l-1.19-2.64h-1.33l-.4.53h.4l1.06.79v1.19h-1.06v.66h1.06l-.26,1.06-1.46.4-.93.13-.27.4Zm1.59,31.68l.93.13-.4.79-.8-.26.26-.66Zm41.37-20.46l3.31,7.66-.26,2.11-3.31,1.45h-37.12l-3.45-1.06-.13-2.51,4.11-10.03,1.59-2.24,2.39-5.02.66-2.24,2.65-4.88.66-2.64,5.04-9.9.79-2.51,1.19-2.24.93-2.24,1.86-1.45,1.59,1.45,1.46,2.24,1.86,4.62,1.59,2.51,1.72,5.15,1.46,2.24,3.58,7.26.79,2.77,1.19,2.51,1.72,2.38.53,2.38,1.59,2.24Zm-37.92-82.24l-.66-2.64,1.33-1.32,1.46-.66,1.72-.13,13.92-5.02,2.12.92.93,1.45.4,1.85.79,1.32.53,1.58.79,1.19,6.23,14.26-1.99,1.06h-1.33l-1.72.4-2.78-.4-2.12.26-1.46-.26-3.58.26-2.65-1.06-4.24-5.15-1.33-1.06-.79-1.32-2.39-1.98-1.86-2.77-1.33-.79Zm-.66,62.97l.13.4.53-.4.66.53,1.19.92-.26-.53-.93-.4-.26-.92-1.06.4Zm.93,36.56l.13-1.06-.8-.13v1.06l.66.13Zm-.4-39.6l.13.4.93,1.19.93.13v-1.58l-.13-.13.13.26-.79.53-.93-.4-.26-.4Zm.53,7.13l-.4.66.13.26.4-.26.13-.53v-.13l-.13-1.45-.66-.92v1.19l.53,1.19Zm32.35,22.31l-.79-.92-.53-.26-.66.66h-.53l-.53-.92.13-.4-.53,1.19-.66-.53-.53.66-.8,1.32-1.06-1.45-.27-.92.27-.66.8-.66-.8-.4-.4.79-.53.92-.66,1.98-1.33-1.58.93-.13.4-.79-.8.26-2.12.92-1.59-1.19-2.25-.13h-1.72l-1.86-.53-1.19.26h-2.39l-.53-.92-1.06-1.32v-1.58l-.79-.13h-.27l1.33-1.32-.66-2.64h-1.06l1.06-.66.8-2.38-1.19-.53h-.8l-1.59-.53-.4.79,1.06,1.72-.93,1.45.8,1.06.53.79-1.33-.26-.79-1.58-.53-.13.13.53-.26,1.72,1.33.79h-1.19v1.06l1.46-.13-.4.53-2.25-.13-1.72.66-.27,1.72-1.19,3.43.66,1.45,1.86.92,2.25.92,2.78-.26.8-.53.26.13.8-.13,1.19.92,1.06-.53,2.78-1.06-.27.66v.4l1.86-.13,2.65-.26.8-.66h.66l1.06-.53v.66h1.06l.66.53.79.26.53-.26,1.06.4.4-1.06.53.66,1.59.26.93-.92-.27-1.06h.53l.93.92.13.79.13.53.53-.66-.66-.79-.13-.4,1.06-.13.79-.13.4.53.53-.92Zm-31.42-91.08l.66.53.53.53.53.92,1.19,1.32h.79l1.06-.4.13.92v2.11l.53.92.27.79.93-.13.27.4h.79l.8.79.53.79.8.53.79.4.53.53h-.93v.66l.93.13.27.4-.27.4-.13.26.4-.13.66-.4,1.06-.79-.13-1.06v-.53l-.93-1.32-.66-.79-.27,1.06-.93.26.13-.66-.27-.4-.93-.13.13-1.06.4.4h.53l-.27-.4-.53-.26,1.06-.53.4-.92-.8-1.32.4-.26-.53-1.06-.13.13-.53,1.06h-.93l-.66-1.32-.79-1.06-1.06.66.13.13h.4l.26,1.19v.92h-.53l-.4-.92-.8-1.32-1.06-.66-.13-.4.53-1.06,1.46-1.19,1.59-.92.53-.92-.93.4-1.33.79-.79.13-.8.53-.53.53-.93,1.32-.13-1.32-1.72.26-.66.53Zm3.05,88.05l.79,1.06-.53.26-.4-.53-.27-.53-1.06-.92,1.33-1.06.26.4v.53l-.13.79Zm0,4.22l.79.26-1.06.53-.79-.66,1.06-.13Zm.4-38.15l.8-.53.26-.92-.8.26-.26,1.19Zm.8,48.31l.13.4-.4.4-.13-.4.4-.4Zm-.13-52.27l.4.13.66-.26.53.4.53.13-.53-.53v-1.19l-.8.53-.4.66-.4.13Zm.13,4.62l-.13.53.4.53-.26-1.06Zm1.33.92l-1.06.26.13.13.66.53.53-.26-.27-.66Zm0-55.84l-.79.66v.26l.26-.26h.27l.79.26.13-.26-.66-.66Zm.66,104.41l.4.92-1.59-.92h1.19Zm-.53-18.35h1.33l-.13.66-1.19.92v-1.58Zm.26-38.81l.53.79.53.13-.4-.79-.66-.13Zm.27-41.32l-.13-.26,1.19-.79h.66l-.8.79-.93.26Zm.66,1.32l-.27.4v-.26l.27-.13Zm1.19.53l-.4.26v-.26h.4Zm-.4,63.63l.4.26.26-.13,1.19.53,1.19-.4-1.06-.66-1.19.26-.4.26-.4-.13Zm1.06,17.82l.66-.53-.13,1.19-1.59.4,1.06-1.06Zm-.8-82.63l.8-.53.53.66-.8.66-.53-.79Zm.8-8.98l.4-.13.26.13-.13-.26-.53.26Zm.66,2.38l.13-.66-.26-.4-.13.4.13.66v1.19l.66.92.27-1.32-.8-.79Zm5.57,71.15l-5.3,12.01.4,2.64,2.52,1.06,10.34-.13,2.25-1.06.26-2.38-.93-2.38-1.33-2.64-.53-2.11-1.46-2.24-1.72-5.15-1.59-1.06-1.72,1.32-1.19,2.11Zm-5.17-74.71l.53.13.26-.4v-.13l-.53.13-.26.26Zm0,71.28l.26,1.06,1.19.4v1.45l.66,1.45.13-1.58-.4-1.58-.79-1.19h-1.06Zm.53,35.25h.66l-.13.53h-.8l.27-.53Zm1.59-90.95l-.53-.4.4-.53.53.4-.4.53Zm-.4-8.32l2.12,3.96,1.06.92,1.06.4,1.06-.4-1.33-2.9-.66-1.72-.66-1.06-2.39-1.06-.26,1.85Zm.93-8.32l.13.26.66.53-.27.53.13.53.53.66,1.06-.4h1.33l.79.4,1.19-1.06-.26-.66-.27.53v.53l-.79-.53-.8-.13-1.59.66-.93-.4.13-.66-.4-.53-.13-.13-.53-.13Zm.27,69.17l.66.66v-.53l-.66-.13Zm.66-3.3l.53.66,1.06-1.06-.27-.79-.27.53-.93.13-.13.53Zm0,42.24l.66.13-.13.53-.53-.4v-.26Zm1.46-107.98h.66l.53-.4h-.66l-.53.4Zm.79,96.23l.66-.13-.4.66-.8.13.53-.66Zm-.4-89.37h.13l-.13-.13v.13Zm.8-.53l-.27-.66-.26.53-.13.53.66-.4Zm1.33,1.32h.66v-.79h-.79l.13.79Zm.8,88.44l.66-.26-.27.66-.93.53.53-.92Zm.13-86.07l-.53.66h.93l.53-.66h-.93Zm-.13,53.46l.93.13.4-1.06.13-.53-.26-.13-.13.66-.66.26-.4.66Zm1.72-51.88l-.4.13-.27.53-.66.79.4.4.26-.4v-.66l.53-.53.13-.26Zm-.8,54.52l-.4.53v.4l.53-.26-.13-.66Zm.13-59.8l.66-.13.13-.53h-.66l-.13.66Zm0,2.51h.53l.8-.66.53-.66-.93.26-.4.92-.53.13Zm1.72,3.04l-.53.92,1.19-.26.66-.92.13.26h.53l.13-.4h-.4l-.4-.26-1.33.66Zm-.27-2.38l.93.79v-.13l.4-.66-.26-.92-1.06.92Zm2.65,4.22l-1.19.26v.53l.4.53-.4.66-.53.13h-.66l.13.4-.4.53.27.4-.13-.4.8-.26.53-.79.66-.4,1.06-.79-.53-.92v.13Zm-.8,94.25l1.06.26v1.06l-.79-.13-1.06-.4h-.93l-.13-.66,1.86-.13Zm-.13-37.23l.8-.4.53-.4-.93.13-.4.66Zm1.59-53.2v-.4l-.66-.4v.66l.66.26.66.4.4-.13-.4-.4h-.66Zm.66,57.55l1.33-.4-.26-.53-.93.53-.13.4Zm.66-28.91l.66-.4v-.4l-.66.13v.66Zm1.86,35.64l-.8.26-.4-.13.66.66.93-.66-.4-.13Zm-1.06-1.19l1.06-.13-.27-.79h-.79v.92Zm.13-30.23l.4.53.26-.13-.53-.79-.13.4Zm0,58.08h.66l-.4.4-.26.13v-.53Zm1.72-19.27l-1.33.92-.27,1.32.93-.13.79-.13-.26-.4-.4-.79h.79l.66-.66-.93-.13Zm0-1.58h1.33l.27-1.45-.8.13-.66,1.06-.13.26Zm.4-2.9l.93.53.8-.66h.93l-.26-.13h-.66l-.27-.79h-1.06v1.06h-.4Zm6.63,6.86l-.79-1.58-.4-1.32-1.19-.53.27-.79-.66-1.32-1.06.53-.53,2.38-.8,1.58.27.53.4.13.4.4.93.53-.13-.79-1.06-.53.79-.92v-2.38h.53l.66.66.4,1.85,1.46,1.72-1.59,1.19.26.4.53.53.79-.26.13-.79h.26l.13-1.19Zm-2.65,2.9l-.4-.66h-.66l.4.66h.66Zm-.53-30.89l.93.13.93-.53-1.19-.13-.66.53Zm1.99-.26l.53.92v-.66l-.53-.26Zm2.12,5.15l-.8-.53-1.06,1.32v1.58l1.06,1.06,1.06.92,1.19-.92-.66-1.06v.53l-1.59-.79,1.06-.92.8.26-.27-.66.13-.53-.53.26-.4-.53Zm2.92,6.6l-2.39-1.06-.53.66v2.51l.79-.26.93-1.45.4.92-.4.66h.53l.26.13v-.92h.8l.93-1.06-1.33-.13Zm-2.52,33.66l.93,1.32.53.13.4-.53-.53.13-.4-1.06v-1.45l-.4-.13-.53,1.58Zm1.99,3.3l-.66.26-.53.66.93-.13.26-.79Zm1.99-4.62v-1.32l-1.19.26-.13,1.19.4.13,1.06.53-.13-.79Zm-1.33,3.04l1.59-.4,1.06-1.45-1.46.53-1.19,1.32Zm3.98,8.45l1.86-.53.53-1.72-.53.13.13-.92,1.59.26.66.53.53.79.26-.13-.66-.92-.79-.53-.8-1.72-1.72-1.06.66.92-.93,1.32-1.59-1.06-1.33-1.32-.93.4-.26-.79.66-.79h.4v-.26l.4-.26-.66.26-1.33.79v1.06l.13.4-.27.4.27.26h.53l1.33.13-.93,1.45.13.66.93-.92-.13,1.06.93.4.79-1.06.66.13.27,1.32-1.46.92v1.45l.53-.26.13-.79Zm-3.58-39.07l-.26.4,1.06,1.32-1.06,1.32,1.06.4,1.72.4-.27-1.32.66-.4.27-.79-.4-.53-.4.13-.79-.4-1.59-.53Zm2.25,4.88l-1.33-.4.93,1.19,1.59.66.4-.92-1.59-.53Zm.4,26.93h.4l-.26-.53h-.93l.8.53Zm1.06-24.29l-.66.53.13,1.72.79,1.19-.4-.79.4-1.19.8.79.8-.53-1.86-1.72Zm16.71,32.61l.27-.53-.13-1.32-1.06-.13-.4.13h-.93l-.93-.4,1.59-1.06.13-.66-.4-.4-.93-.13-1.19-.79-.4.26.27.4.66.79-.53.66-1.33.92-1.33.4-1.19-.79-.93-.66-.8.79-.79-.53-.8,1.45-1.46-.4-.66-.53-.66.92.93,1.58-1.33.26-.27-.53-.53.13.4.26.4.4.66,1.06,2.39-.4,1.99.4-.4-1.19-1.19-.4.13-.66,1.33.4.66-.26-.53-.53-.93.26.4-.66.79-.66,2.39,1.19,1.19-.4,1.72-.79.4.53-.13,1.06,1.19,1.45.66.26-.26-.53-1.59-1.19,1.46-.26,1.06.53-.4.13.93-.13.53.53-.13-.26Zm-13.92-27.06l.53,1.85.53.13-.26-.92-.27-.53.27-.26.26-.66-.26-.79-.8,1.19Zm2.12,7.39l1.33.26v-1.32l.79-1.19.27-.53-.93-.4-.93,1.32-.53,1.85Zm.4-4.22l.4.13.53-.66-.66-.53.13.26-.4.79Zm2.12,9.9v1.06l.26.53.93-.92v-1.06l.13-.26h-.79l-.66-.66-.93.4,1.06.92Zm1.06,2.64l-.27,1.06.53.66.27-.79.4-.79.66-.4-1.06-.53-1.19.66.66.13Zm1.86,12.14l-.66.53-.13.66.4-.4.4-.79Zm.26-6.47l-.4-.53-.53.26.93.26Zm-.66,1.98l.13.66.53-.26v-.66l-.66.26Zm2.25-4.49v-.79l.53.4.4-.92-.8-.26.13-1.06h-1.72l-.66,1.85,1.19,1.19v.66l.26.26,1.19,1.32,1.46-1.45-.93-.66-1.06-.53Zm.93,10.03l-.4-1.19-.79-.4-.4-.13.13.4.53.79.66.26.27.26Z"/><path class="cls-1" d="m319.41,73.31l-.26,10.82-.8,2.11-.4,2.9-2.25,5.15-2.78,4.22-1.72,1.98-1.72,1.72-1.86,2.11-1.99,1.58-12.6,5.02-13.66,1.06-2.78-.53-2.92.26-3.05,1.45-1.19,2.38.13,3.04-.26,2.51.26,4.88-.13,2.9.13,2.64-1.19,2.77-2.79,1.06-3.05.26-2.39-.13-6.5.26-2.39-.13-4.11-1.32-1.46-2.51.13-24.42-.27-2.51.13-34.19-.27-2.51.53-5.28-.13-15.97,1.19-2.11,2.78-1.45,2.78-.53,2.39.4,2.92.13,8.22-.53,2.65.4,8.09.13,2.92-.4,4.24-.13,3.98.13,2.65.92h2.65l2.25.92,5.3,1.58,4.38,2.9,5.97,5.15,3.18,4.36,2.52,4.49,1.59,4.88.4,2.9.53,2.24Zm-49.59,37.75l-.8-.26-.93-.26.66-.26.4-1.32-1.19-.53-.4.13.66.92-1.46.13-1.06-1.98h1.33l1.72-.53-.4-1.19-1.59.26h-.66l-.4-.79-.93,1.98-.53,1.98-.66-1.19-1.59-.79v1.19l.26,1.45-1.06.79.66.4-1.06,1.06.4.92h.53l.4.4-.66.53-.27.66.66.4-.4.79-.8,1.06.27,1.19.13,1.58-.4,1.45.93.26-.4,1.19.4.66-.66.4.4.66,1.06.79.8,1.45-1.06-.13-.4.13-.53-.26-.4-.79-.4.13-.13.53.53-.13.26.26-.4.66-3.84.26-1.86-.53.13-1.45-1.46-1.85.79-.92-.4-.53-1.46,1.19-1.19-.13,1.86-1.58-.79-.92,1.99-1.58-.26-1.19-1.06.13v-.79l1.46-.92-.13-1.85-1.19.4-.66-.13.13-.53.27-.92,1.06.13.26-1.06-.93-.13.13-.4.79-.13.27-.66-.93-1.58.79-1.06.27-.79-.4-.4-.13-2.38-1.06-1.45.79-1.06.66-1.58-.27-.26h-.79l-.4-1.06,1.06-.4-.4-.79-.4-1.06,1.33-.26-.8-1.06-.26-1.58-.53-.66-.53-.53-.93.26v1.06l-.53.66-.53,2.11-1.06,1.19-.4,1.45-.93.4-.13,1.32.53.4-.8,1.45.13,1.85-.27.79.13.79.13,1.85,1.59,1.58.13.79-1.06.4-.27.66.13,1.72-.53,1.85-.13.53.53.53-.93,2.64,1.19,2.38.13.66,1.19,1.06v2.51l-1.19,1.06-1.46-.53.27,1.98,1.33.92-.4.26-.27.26,1.46.13-.4,1.06-.66-.26-.27.26,1.06,1.06,1.06,1.45,1.06-.79.66-.4.27.53-.27.53v.13l.13.13.4,1.06,1.72-.79,1.72.26,1.72-.26,1.33.4.4-.26-.4-.26-.66.13-.27-.53,1.59-.53,2.52,1.06,2.12-1.06,1.33-.26,1.06-.66-.53-1.45.8-1.45-.27-.92.13-.66-1.33-.4.93-1.45-.53-.66-1.33.26.13-.53,1.33-.66-.13-1.32.66-.4.8.66v-.4l-.27-1.32-.79-1.58,1.33-1.32-.66-1.58.26-.79.27.4.4.4v-.53l-.4-.4,1.06-1.32.66-1.72.26-1.32.13-.4Zm-22.01,14.92l.66.13.13-.53,1.06-.13-.27-1.45-1.86.79-.27,1.45.53-.26Zm.66-38.02l-.93.92.26.79,1.19,1.58-.93,2.38-.27.92,1.06.66.13,1.06.93.13-.13-.66-.4-.66.4-.26v-2.38l1.06-.92,1.99.4.8-.13-.27-.79.27-.53-.13-.26-.27.26.13.53-3.18-.26-.4-1.72.26-.53-1.19-.13,1.33-.92-.4-.53-.93.26-.66.13.27.66Zm.13-8.45l.13.4,1.06.92,1.86.4.93-.66-1.19-.13-.66-.4-.93-.92h-.66l-.53.4Zm.13-3.3l.13.79.8.26-.27-.79-.66-.26Zm.53,3.7l-.4-.26.4-.13.53.13-.53.26Zm-.27-26.8l.93-.66-.66.13-.27.53Zm1.06,65.21l-.93.4-.13-.66.8-.13.26.4Zm1.19,10.43l-1.19.26-1.06-.53.8-.79.93.4.53.66Zm-1.99-12.94l-.13-1.19,1.19.92-1.06.26Zm1.19-7l-1.06-.13,1.06-1.19,1.72-1.19.8.92-.53.79-1.99.79Zm.66,11.88l-1.46-.13.79-.66.8.26-.13.53Zm-.26-61.65l-.53.26-.53.53h.66l.53-.79-.27-.26.13.26Zm.79,14.12l-1.46-.26.66,1.32h1.46l-.66-1.06Zm-.4,44.22l.79.53-.93.26-.79-.53.93-.26Zm.13,13.6l.4.92-.4.66-.8-.79.4-1.45.79-.66-.4,1.32Zm-.53-6.34l.93.26.66.53h-1.06l-.53-.79Zm1.59-20.46l-1.46-.13v-1.19l1.19-.92-.13,1.06.4,1.19Zm-1.19-3.83l-.13-.66h1.06l-.93.66Zm1.33-6.07l-.93-.13.66-.4h.53l-.27.53Zm1.99,32.6l-.66.66-.26-.13-.4,1.19-.93.53v-1.06l-.53-.53,1.59-.92,1.19.26Zm-.93,4.36l.4,1.85-.66-.4-1.06-.92-.53-.92,1.19-.92v-.4l.66,1.72Zm-1.72-68.77l.53.53.53-.13-.8-.4h-.26Zm1.72,22.18l.53-.92h-.66l-1.06-.26-.4.13.4.13v.66l1.19.26Zm-.8,49.5l-.66-.66.8-.26.66.53-.8.4Zm.13-48.84l-.27.53v.4l-.4.4h.53l.8-.66-.66-.66Zm.26-21.25l-.66.13v.79h.66v-.92Zm.53,5.41l.27.13-.13-.13-.79-.92h-.4l1.06.92Zm0-16.5l.8,1.06.4-.53-.79-.53h-.4Zm2.92,76.56l1.19.79-.53.53.27.4-1.86.53-1.33-1.45.53-.53.4-.13.13.66.53.26.66-1.06Zm51.97-45.28l.4-2.51.4-4.09-.66-6.6-.93-2.9-2.39-4.09-4.24-5.68-3.05-2.11-5.17-2.11-4.91-1.45-4.11-.53-3.98.4-4.91-.4-2.52.4-2.52-.4-2.79.26-2.39-.13h-5.17l-2.52,1.45-1.06,2.24-.4,8.45.26,2.38.13,42.9-.26,2.9.4,2.77v2.51l-.4,2.64.13,2.51.8,2.77,1.33.13.66-2.77.13-15.31,1.46-4.09,2.78-1.58,2.78.13,2.92.53,2.78-.4,2.52.4,2.92-.53,2.92.4,7.96-.4,5.3-1.19,2.39-1.32,2.25-1.19,4.24-3.43,1.72-1.72,3.05-4.62,1.72-4.62Zm-2.39-10.56l.13,3.96-.13,4.09-1.59,4.75-1.46,2.51-3.18,4.62-4.24,3.3-2.65,1.06-2.25.53-2.92,1.06-4.24-.13-4.11.4-2.65-.4-5.3.4-5.83-.26-2.65.13-2.65-1.45-1.46-2.11-.27-18.74.4-2.77v-13.07l-.27-2.24,1.46-2.64,2.78-1.58,24.66.26,7.82,3.04,4.51,2.9,3.45,4.49,2.65,7.92Zm-45.61,55.57l.27,1.06-.66-.26-.4-.53.79-.26Zm.8-10.56l-.53-.53,1.06-1.06.79,1.98-.79.53-.53-.92Zm13.26-21.12l-1.59-1.32.66-.4h.66l-.4-.66-.53-.4-.53-.13-.66-1.06-1.19-.4.13-.79h.4l-.4-.4-1.19.79.26,1.06h.66l1.59.92-.93.53-1.59.4-.93-.92-.13-.66.13-1.19-.93-1.19-1.06-.13-.4.13h-.79l-.8-.53.4-.4.66-.4-.26-.4-.66.53-1.06.4-1.59.79.26,1.85-1.06.53.4-.4-.66.4-.4.26.4-.13,1.19,1.32.13.66-1.19-.26,1.19.79,1.72-1.98,1.19-1.45,1.46.4-1.59,1.72-.53,1.06.27,1.19,1.06.53.66-.13.53-.4.53.53.53.4-.13-.53-.53-.79.53-.53.66.79,1.86-.53,1.59-.53.79.4-.26.4.4.79h.66l.4-.53Zm-10.34,30.89l-.4,1.06-1.59.79-.13-1.06.4-.26-.53-.53-.66.13.66-.53,1.33-.4.93.79Zm-2.39-40.52l1.06-.26.13-.92-.93.26-.26.92Zm1.46,43.03l.13.66-.53.66-.8-.66.13-.66h1.06Zm-1.06-60.46l.13.26.53.4.66-.4.4-.26-.66-.13-.4.26-.27-.13h-.4Zm.13-1.06h.79l.4-.26-.4-.13-.79.4Zm0,19.67v.53l.4.53.27-.66-.66-.4Zm.26-21.25l.53.4.53-.13-.53-.4-.53.13Zm.13-5.54l.4.4v-.79l-.4-.26v.66Zm1.06,61.51l-.93.26.13-.66.79.4Zm-.53-16.9l.66.13-.13-.66-.66-.13.13.66Zm3.18,5.81l.26.66-1.72.4-1.59.53,1.33-1.45,1.72-.13Zm-2.25-26.8l-.53.4.13.53.4-.92,1.33-.53h-.66l-.66.53Zm-.53,34.45l1.46-1.85-.27,1.19-1.19.66Zm.4,9.77l1.46.4.27,1.85-.8-1.45-.93-.79Zm1.33-50.43l.53.13.66-.53.66-.66-.53-.53h-.66l-.26.4.13.26.13.4-.4.13-.27.4Zm.13-6.34l.8.4.53-.66.13-.4-.53.26h-.8l-.13.4Zm.27,12.8l-.27.66.53.4.66-.4.53-.26.4-.26-1.86-.13Zm.26,9.5l1.19.53v.79l-.79.66-.66-.92.26-1.06Zm.4-16.76l-.4-.26.53-.26.4.26-.53.26Zm1.33,15.84l.66.53-.93.26-.66-.4.93-.4Zm-.4,17.03l.8-.66-.66,1.98-.13-1.32Zm1.33-60.99l.66-.26.4-.26-.53-.13-.53.66Zm27.05,26.66l-.27-3.7-.4-2.38-1.33-2.64-1.72-1.72-2.12-1.45-2.65-1.19-13.79-.4-2.78,1.32-1.33,2.51v5.41l-.26,2.77.4,10.69,1.19,2.24,2.65,1.58,3.18-.26,6.76.13,4.11-.53,2.12-.66,2.12-1.58,1.72-2.11,1.19-2.11.93-2.38.27-3.56Zm-22.14,30.76l-1.46-1.45-2.12-.66-.4.66.8.66.4.4.13.66-.53.53h.4l.4-.53-.4-.66.79-.13.4,1.19,1.33-.13.27-.53Zm-1.46-60.19l.53-.13v-.4l-.53.53Zm1.06,49.37l.53-.26.53.26-.53.26-.53-.26Zm4.77-2.11l-.4-.66-1.06.66.66.26.79-.26Zm7.16,13.33l.53-.13-.4-.26-.53-.26-.93.4-.66.4-.26-.26.13.79-.66.53-1.46.26-1.06-.66-.27-.79-.66-.26v.66l.66.53,1.19,1.06,1.72-.53,1.06-.66.4-.79.66-.4.53.4Zm-4.77-14.92l-1.06.4-.13,1.45.93-.66.27-1.19Zm2.52,1.72l-1.19-.53-.53.4.79.53.93-.4Zm2.78,0l-.53-.79-.93-.26.53.66.93.4Zm.53,13.99l-.53-.13-.27.53.66.13.13-.53Zm1.86-13.6l-.26-.53-.27.66.4.26.13-.4Zm1.72-3.43h-.53l-.4.26.53.13.4-.4Zm4.24-40.26l.53-.26.4-.53-.93.13v.66Zm2.25,51.35l-1.06.26.13.53.79-.26.13-.53Zm4.38.26l-.4-.53.13.53-.53.4-.93-.26-1.33-1.19-1.19-.26.93.92,1.33.79.79.66.8-.13.4-.92Zm-1.46-1.58l.13-.53.27-.66-1.06.66.66.53Zm1.46-20.86l-.53-.13-.66.13-.4.26.53.13.66-.4h.4Zm-.93-9.11l.13.79.4-.4v-.66l-.53.26Zm2.39,28.12l-.13-.79-.93.13v.92l1.06-.26Zm8.75-5.94l-.79-1.06-.27-.53-.27.53-.66,1.19,1.06.92.93-1.06Zm2.12-26.27l.53-.79h-.93l-.53.92.93-.13Zm1.33,19.14l-.8-.26-.53.66h.8l.53-.4Zm0,1.45l-.53.53v.66l.53-.26v-.92Zm.27-7.13v-.79l.66-.13.53-.4-.4-.66-.26.4-.8.4-.27.79.53.4.66.53.4-.13-.4-.13-.66-.26Zm0,2.9l-.4-.53.27.53v.26l.13-.26Z"/><path class="cls-1" d="m409.83,99.98l.53,5.02v21.25l-.53,5.41-1.46,2.51-2.65,1.45h-9.15l-3.98-.4-2.65.26-2.65-1.32-1.33-2.77-.4-5.15.53-3.96-.53-9.37.4-2.51-.4-8.05-1.33-2.64-2.39-1.32h-2.52l-2.65-.26-2.65.26h-7.82l-2.39-.26h-2.78l-2.65,1.58-1.33,2.77.4,10.43-.26,2.77.13,2.9-.27,2.51.27,2.64-.27,2.38.4,2.9-.13,2.64-1.06,2.64-2.92,1.19-2.79.26-2.78-.4-3.84-.13-4.11.4h-2.52l-3.05-1.19-1.06-2.77-.26-13.46.26-2.64-.4-2.38.4-2.64-.26-2.9.4-6.2-.27-3.04.27-4.09-.4-2.51v-7.66l.26-2.77-.53-8.05.53-2.64-.26-2.24.4-2.9-.66-7.92.4-2.51-.26-2.9v-2.51l.4-2.9,1.46-2.24,4.11-1.19,2.52-.26,2.65.26,7.82-.26,4.11,1.32,1.59,2.77-.13,2.24.4,13.07-.27,2.38v7.92l1.06,2.51,2.79,1.19,12.86-.13,2.39.26h5.3l2.25-1.32,1.46-2.64v-7.66l.53-2.24-.27-14.39,1.06-3.83,3.98-1.19h2.65l4.24-.4,6.76.13,4.11,1.32,1.33,2.64.27,2.64-.53,2.64.26,2.51.53,2.51-.66,10.96.4,12.94-.27,2.9.13,5.02-.4,2.77v2.64l.26,2.77-.13,2.64Zm-75.31-13.73l.79.13v-.79h-.66l-.13.66Zm0,27.85l1.06.4.13-.92-.53.26-.66.26Zm3.58,13.33l1.33-1.19,1.46.66.13-.66-.13-.4-3.85-.26.53-.92,1.06-1.19.4,1.06.93-.66-.93-1.72-2.39-.66-.93-.4,1.46-.26.8-1.06-1.33.4-1.06.92.26.4-.4.53-.26.26.66-.13.8-.4.53,1.45-1.72.79-.13,1.45-.26,1.06-.53,1.19.26,1.06.8,1.06,1.19-.53-.13-.53-.8.13-.93-.4-.26-.53,1.46-.13-.4-.92-.4-.13.66-1.06.27-.66.79.66v.92l1.06.79Zm-3.45-74.19l.13.66.13-.53-.26-.13Zm.26,45.15l-.26.4.26.4.13-.26-.13-.53Zm.53-10.03l-.53-.13-.13.53.53.13.13-.53Zm.13,4.36h-.66l.53.26.53.13-.4-.4Zm4.64,22.44l.66-1.32-.53-.53-.66.66-.4-.13-.26-.4-1.06.4-1.59,1.58-1.46,1.19.13.79.93-.26,1.19-1.06h.8l1.59-.13h.93l-.26-.79Zm-3.71,3.04l-.93.53h-.53l.53.13,1.33.53.66-1.06-1.06-.13Zm-.93-62.17l.13.53.79.26-.4-.53-.53-.26Zm1.59,44.35l-.93-.4v.53l.93.53,1.33.13.53,1.19-.13,1.19-.13.79-.79-.26-2.25,1.72-.13,1.72.4.13.93-1.45.79-1.85.8.4,1.19-.92.4-.79.13-1.06-1.19.13-.13-.79.8-.79.26.26-.26-.92.13-.66h.93l-.13-.92-1.06.13-.66.4.4.53.13.53-.66.4-1.59.13Zm2.52,6.47l.79-.26-.53-.66-2.39,1.19-1.72,1.72.66.79,2.25-1.19,1.59,1.06-.27-1.19-.4-1.45Zm-3.71-3.7v.13h.27v-.4l-.27.26Zm1.33-.92l.4-.4-.66.4-.4-.4-.53-.13.13.26.79.26.4.66-.13-.66Zm.26,8.05l-1.06-.26-.4.79,1.06.26.4-.79Zm.66-15.44v.4l-.66.26-.4-.13.27.53-.13.4.66.79.79-.53h-.66l-.66-.66.79-.53.4-.4.4.13-.4-.92-.93-.53-.4.4v.53l.93.26Zm-.66,17.56l.66.53.27-.79-.93-.4v.66Zm10.87,16.76l-.26-.66-.27-.92-.4-.66-.4.92-.4.53-1.06.66-1.06-.13-.93-.4-.8-.4-.26-.79-1.86.79h-1.86l-.53-.26v.53l.53,1.06-1.33.79v.92l.93.66.93-1.06.4.13.27-.92,1.59-1.19,1.06.53-1.06.92-.26.92.79.66.66-1.45.66-.92.93-.13.53.13.8-.13,1.19-.4h.53l.26-.26.4.13.26.4Zm-10.34-79.2l.53.53.4.13-.27-.66-.13-.26-.53.26Zm.4,35.64l.4-.13-.13-.4-.4.13.13.4Zm-.13,3.04l.27.53.4,1.19.26.92.4-1.06-.53-.92.26-.79-.53.13h-.53Zm.13,25.87l.66-.4-.27.79-.4-.4Zm.79,2.77h-.26l-.27.53h.53v-.53Zm-.13-30.36l.53.66.93-.66-.8-.53-.66.53Zm0,31.68l.26.53.53-.13-.26-.4h-.53Zm0,2.24l.53.13.4-.26-.53-.66-.4.79Zm.26-25.34l.27.26.4.26-.27-.26-.4-.26Zm.66,15.58l-.4.4v.53l.53-.26-.13-.66Zm1.99,22.04l-.13-.4-.93-.4-.66.13.53.4.66.26h.53Zm3.85.13l-.4-.92-1.33.26h-.93v-.13l-.13.13,1.06,1.19,1.72-.53Zm-2.65-86.86h.53l.8.26.27-.26-.27.13-.8-.66-.53.53Zm56.08,47.92l.53-2.24-.13-2.9-.4-2.64.27-2.64-.4-2.51.13-2.38-.26-2.77.4-2.64.13-8.05-.4-5.28.13-2.38-.4-5.28-1.33.13-.93,2.51-.27,5.15.27,2.9-.27,16.1.27,2.64-1.86,2.9-2.39,1.06-2.65.26-2.52-.26-2.65.26h-7.69l-2.92-.26-10.34.13-2.39-.26-9.28.13-4.24-1.19-1.33-2.77v-2.51l.53-5.54-.66-2.64.4-2.64.13-2.64-.13-2.77-.4-2.64.66-5.41-1.06-2.64-1.33-.13-.93,2.51v2.77l-.27,2.51.4,2.64v36.83l.27,2.77-.53,2.64.13,7.79.4,2.64-.53,7.92,1.06,2.77,1.46-.26.53-2.38.4-15.31-.4-2.77v-2.38l.26-2.64v-7.79l1.46-2.64,2.25-1.19,4.11.26,3.84-.26,2.52.13,2.92-.13,2.52.13,2.25-.26,2.52.4h2.92l2.78-.4h15.78l2.78,1.45,1.19,2.38-.4,2.9.26,10.16.4,2.38-.26,2.51.13,2.64-.27,2.38v2.9l.4,2.24-.26,2.64.53,2.64h1.33l1.06-2.38.13-2.9-.53-7.66.4-3.04-.4-7.66.27-2.77-.13-5.28Zm-54.62,37.09l.93-.53-.53-.53-.93.79-.27.53.8-.26Zm3.05-1.06l-.13-.4-1.19.79.53,1.45.13-.26.26-.66.4-.92Zm-.26-7l.26-.13v-.53l-.4.13.13.53Zm2.12,3.43l-.4-.66-.66-.79.13-.53.53-.53-.4-.26-.4.66-.53.4v.66h.8l.26.4v1.06l.66-.4Zm-.93-19.4l-.4.13h.4l.4.53-.26.66v.66l.53-.53.26-.4,1.19.53,1.19-.53.4.4.13-.4-.27-.4-.26.26h-1.33l-.4-.4-.93-.79-.66.26Zm.66,11.35l-.27.92v.4l-.26.13h.4l.66-.53.66-.79-1.19-.13Zm.13-18.08l-.26-1.06-.27,1.19.66,1.19.8-.4-.93-.92Zm.27,9.77l.4-.53h-.79l-.27.79.66-.26Zm2.92,5.28h-1.59l-.66-.53-.27-.66.13-.4h.4l1.19.26-1.59-1.72-.93.79.26,2.24-.53.92,1.06,1.72.53-.13v-.92l.4-.66.93.53-.53,1.58.79.13.27-1.32.13-1.85Zm-2.92-9.9v.53l.66-.13,1.33-.4,1.06-.79-1.33-.13-1.72.92Zm1.99,26.53l-.53-.4-.26-.79.53-1.06.13-.66-1.06.26-.26,1.06-.4.66.53.4.66.66.66-.13Zm-.13-37.36l-.8.26-.53-.13.26.26,1.59-.4.93.26-.8-.92-1.06-.26.4-.66.53-.4-.53.26-.93.53.27.79.66.4Zm-1.19,21.25l.66-.53.4.4-.53.53-.53-.4Zm.13-60.06l.13.66.53-.26-.13-.66-.53.26Zm1.06,17.29l-.53.4.53-.13.4-.13-.4-.13Zm-.13,24.16l.53-.53-.13-.53-.66.4.27.66Zm.26,26.67l-.53-.13.8.53.4.4.13-.53-.8-.26Zm.8,2.9l.93-1.32.53-.66-1.19.26-.53.79-1.06,1.32.66.79h1.33l.66-.26-.66-.26-.66-.66Zm.4-23.63l.4-.13.26-.53.4-.4h-.4l-.53-.26-.66-.53-.66-.26.53.53.66.26-.26.26-.8.13.13.4.66.13.26.4Zm-.53-49.9l.27.53.4-.13h-.27l-.4-.4Zm1.46,56.23l.26-.66v-.79l.4-.66-.53.13-1.19-.26-.4.26.4-.13.8.53.27.92-.4.53-.53,1.32.8.4.66-1.32-.53-.26Zm-1.06,13.73v-.4l.13-.92-.53-.26v.79l.4.79Zm.66-64.29l-.4.66.53-.4.27-.26h-.4Zm.4,55.84l-.13-.79-.27-.66-.4,1.06.8.4Zm4.24-22.57l.27-.66-.66-.13-.13.53.53.26Zm1.19.79l-.66-.4-.4.53.53.13.53-.26Zm2.92.4l-.53-.26-.13.66h.27l.4-.4Zm2.39-1.45l.79-.53-.4.13-.53.13v.53l.79.26-.66-.53Zm4.91-10.43l.26.53.27-.66v-.26l-.53.4Zm1.99-3.17l.13,1.06.8.26.66-.13-.4-.26-.26-.53-.93-.4Zm3.45,15.71l-.26-.4-.4-.53.26-.4-.8.4.8.66.4.26Zm-.4-15.18l.66-.4.26-.4-.4.4-.53.4Zm1.06,4.49l.4.26.66.26,1.19-.13-.13-1.32-.4.26-.26.92-.4.13-.66-.26-.4-.13Zm1.59-2.64l.66.4.8-.26-.66-.26-.8.13Zm.53,11.35l.13-.4h-.53l-.13.53.53-.13Zm.4,2.24l-.4.4.13.4.27-.13v-.66Zm1.33-13.07l.66-.13,1.19-.4.8-.66-1.19-.13-1.06.79-.4.53Zm.8,1.32l-.13-.26-.26.4.53.26-.13-.4Zm1.46,11.48l-.53-.66-.4-.13.27.4.4.53.26.13v-.26Zm-.66-15.71l.26.53.93-.13-.4-.66-.79.26Zm1.46,2.77l.27.4-.93.13.27.92.93-.13v-.79l.53-.53-.53.26-.53-.26Zm2.65,0h.53l.8.13,1.19-.66-.8-.4-.93.26-.53.26-.27.4Zm23.33-27.06l-.4-1.85.13-.66-.27-1.06-1.59-1.32.53-.92-.53-.79h1.59l-.27-1.72-1.06-.92.4.79-.53,1.06-1.19-.26.26-.26.27-.53h-.53l-.8.4-.93-2.11-2.39.79-1.33-.4h-2.52l-.53-.4.13.53-.4.66-1.33.53-.93-1.98-1.06.4-.13-.13-1.06.53-.93.26-.8.53.13.4.4,1.45.8,1.06-.66.13-1.59-.92-.66,1.19.93.4-.93.79-.27,1.58-.13.53.53.4.93,1.06,1.59-.92.8-1.72.4.13-.26,1.32-1.86,1.85-.93.26-.8.13v.4l.66,1.32-.13.79-.4.92.26,1.19,1.72,1.06v.53l-1.19.4-.13.4.13.26-.66.4.4.79.93-.4.4.4-.93.53-1.19.13.27.92.4.4-.4.4-1.06.79,1.33.66-.4.53h-.4l-.66.53v.79l.53.4-.93,2.24-.4,2.77-1.19,1.45.13,1.06.4.79.13.79.27-.79.26-1.85,2.12.26,1.72.79,1.59,1.19-.13.4h.66l-.13-.53-.27-1.32-1.86-.4-.13-.92-.13-.66-.4.66-.27.79h-.53l-.66-1.45-.13-1.98,1.19-.26-.93-1.32.93-.66,1.46,1.32-.4.79-.13,1.19.8-.26v-1.06l1.33.53.13,1.45.26.66.53.53.66-1.19-1.19-1.85-.53-.92.8.13.53-.26-.66-.26-.13-1.45-1.19-2.51.66-.53,1.19,1.06.27.26v.92l.93-.66-.13-2.51-2.12-.53-.93-.66-.27.4.27.66-.66,1.19-1.06-.92-.66-.26,1.06-.66,1.46-1.06,2.25.79,1.06-1.06-.93-2.38-.53-.66.13-1.19,1.06-2.24-.66-1.45-.66-.66-.27-1.06,1.59-.4-.79-1.58-1.19-1.32.53-.79h.26l.4.53.66,1.45,1.59.53-.27-.66.66-.4h.8l.26.4.13-.4,1.33-.26.8,1.06,1.06,2.11.8,2.24,2.12.13-.13,1.58-1.33-1.19-.8,1.45,1.86,1.06-1.33,1.58.4.92-.66.92.53.66,1.99-1.32.27.13.93-1.32,1.72-.79v-.4l-.27-.4.27-.26-.4-.26.53-.92-.13-.66.4-.66.13-.79.53-1.45Zm-22.54,25.48h.79l-.4-.53h-.66l.27.53Zm1.99-1.45l.66-.13.4-.4-.13-.79-.66-.26-.4.13-.27.92.4.53Zm0-17.29l.53-.13.4-.4-.66-.26-.27.79Zm.13,7l.53-.66.4.66-.66.66-.27-.66Zm1.19,13.46l.66-.13v-.4h-.8l.13.53Zm1.59-11.88l-.79-.13.66-.26.13.4Zm.13-7.66l.8-.13-.4.66-.4-.53Zm.53-3.3l-.4-.66.53.26-.13.4Zm1.19-11.75l-1.06-.53.4-1.19.53.79.13.92Zm-.4-2.24l.26-.26.66-.13.66.26-.66.4-.93-.26Zm.4,15.58l.8.26-.27.4-.53-.66Zm.66,2.11l.4-.53.53.53-.53,1.32-.93-.53.53-.79Zm.79-15.18l.66.4h-1.33l-.53-.66,1.19.26Zm-.4-1.19l-.13-.53.27-.66.26.92-.4.26Zm.4,2.9l.4-.26v.79l-.8.26.4-.79Zm.27,20.86l-.27-.4-.26.4.53.4v-.4Zm3.18-19.93l.4.13-.53.53.13-.66Zm2.92-1.06l1.19.26-.66.26-.53-.53Zm2.25,27.46l-.13-.79-.26-.13-.13.79.53.13Zm-.26-4.88l.4.92,1.19-.13-.53-.79h-1.06Zm4.11,11.22l-.13-.26.13-.4-3.31-.4-.4.79,1.99.26h1.72Zm-2.92-28.91l-.66-.53.93-.26-.27.79Zm.27,1.72l-.4-.13-.53-.66.79.13.13.66Zm.66,8.18l.4-.13-.53-.26-1.46,1.98v2.11l1.59-.26h2.39l-.4-.4-.4-.13.27-.53.66-.79-.13-1.72-.8-.79.27-.53.79-.26-.4-.66-.53.66-.53.4.13.79-.13,1.58.4,1.32-.4.4-1.19.13-.66-.92,1.19-1.32-.53-.66Zm-.53-2.51l.26.66-.53.26-.4-.66.66-.26Zm1.46,31.02l-.66.4-.26-.26h-.53l.26.26.4.26h.4l.4-.26v-.4Zm-1.33-42.24l.53-.66.53,1.58-1.06-.92Zm0,29.7l.4.26.26-.4-.66.13Zm.93,23.1l-.13-.4-.13-.26h-.4l.27.13.4.53Zm.4-25.35l1.19-1.32-.4-1.19-.4-.66-.4-.13.27.53-.66.79h-.53l.26.53-.13.79.79.66Zm-.26-4.09l1.06-1.06-1.06-.4-.27-.79-.26.66.53,1.58Zm-.13-15.05l.53.4-.8.26.27-.66Zm.13-5.81l.26-.4h.53l-.13.4h-.66Zm1.19,2.64l.26,1.06-1.19-1.58.93.53Zm-.13,33.92l-.66.26.53.26.13-.53Zm.66-3.17l-.53-.66h-.27l.27.26.26.13-.26.53.53-.26Zm.66-14.65l-.53-1.45v.66l-.66,1.06v.66l1.19-.92Zm-.53-19.27l.8-.4v.53l-.8-.13Z"/><path class="cls-1" d="m489.12,120.97l.13,8.18-.27,2.51-1.19,2.51-2.78,1.32-2.52.26-8.09-.53-8.09.4-2.39-.4-29.96.26-2.52-1.45-1.72-2.51.53-2.64.13-2.64-.27-5.15v-2.64l-.26-3.04.4-2.38-.13-2.51.27-2.9-.4-2.77.26-5.28-.4-5.15.4-2.77v-23.63l-.26-2.38.26-2.77-.53-6.73.53-3.83-.26-5.28,1.33-2.9,3.85-.92,17.37-.4,2.39.26,5.17-.13,2.65.26,5.83-.26,2.65.4,2.39-.26,10.61.13,2.78,1.19,1.33,2.64-.4,2.51-.13,2.9.4,2.51.26,5.41-1.46,2.38-2.78,1.45-25.46.13-4.11,1.19-1.33,3.83.27,4.09,1.59,2.38,2.25,1.45,10.47-.13,3.05.26h2.78l2.65-.26,5.3.13,2.25,1.45,1.19,2.51.27,2.64-.27,10.43-1.33,2.51-2.65,1.45-2.39.13-2.78-.26-3.58.26-7.03-.4-2.65.26h-5.17l-2.39,1.45-1.19,2.77-.13,6.47,1.19,4.09,2.78,1.58,2.92-.26,2.92.26,2.52-.4,17.5.26,3.98,1.32,1.72,2.64-.27,2.51Zm-54.89-8.71l-1.46,1.85-.27,1.19,1.06-.13.93-.92.53,1.72,1.06-.66.53.66-1.06.92-.4.26-.13.92-.4,1.45.53.13,1.33-1.58.93-1.45,1.19-1.32.53-.26-.26-.92h-1.86l-.4-1.32.8-.92,1.46-1.19-.13-.4v-1.32l-.13-1.19.13-1.06-.26-1.32.66-2.64.27-1.98-.4-1.72.13-.92-1.06-.92-.66-.13-.53-1.06-.66-1.85.93.4.27.92,1.19-.13.13-1.06h-1.33v-.92l1.33-.79-.4-1.98.13-1.45v-2.24l-.53-.26v.4l.26.53h-.79l-.13-1.45-.53-1.72-1.59-1.85.79-.26.4.4.27-1.06-.93-1.58.4-1.45-.8-.92.8-1.19.13-1.32-1.19-1.32-1.19-.13-.66-.4-.26.4.79.4.27.26-.53,2.38-.27,1.85-.4,2.51h1.06l.53.79-.66,1.06-.79-.53-.93.79.8,1.85,1.06,1.19-.66-.13-.26.92-.53,1.45-.53,2.11.53,2.11.27.26-.27,1.85-.4,1.45,1.06,1.06.13.66.27.66-.66.53-.53.4.26.26.27.79-.66,1.32.8.79.79.53-.53,1.58-.53.66-.27.26.53-.13.66-.66.8-.13.8.79-1.72.79-1.06,3.17,1.86,2.64Zm-2.25-34.72l.93-.53v-1.58l-.93,1.06v1.06Zm.27-8.05l.66.66-.13.4.66-.4.66-1.85,1.06-.92.26,1.45,1.46,1.32.53-.26-.53-.26-.13-.66h1.19l.53-2.38-2.12-1.19-1.19-.26.13-1.06-1.06.53-1.46.79v2.11l-.53,1.98Zm.4,21.38l.27.53-.53-.13.27-.4Zm2.39-2.64l-1.99.79-.53-.53.66-.53,1.99-.92-.13,1.19Zm5.3,41.71l1.06-1.32.4-1.19-1.19-.26-1.19-1.19-1.59-.13.26-1.72v-1.98l-1.86-1.06-1.99.79-1.06-.4h-.26v.79l1.46.26.66.66v1.45l-.66.13-.27-.92-.66.13-.27,1.19.13,1.58.79.66,1.06.66-1.46.53-.79-.13.66.53-.13,1.19-.8,1.19.4.79.93,1.06.4-.4.4-.53.8.26,1.06-.53.8.66.4-.13.53.26-.53-1.06-.8-.66-1.19-.26.8-1.06,1.33.26,1.33-.4.8.26-.8.4-.26.79.93-.13.4-1.06Zm-7.56-12.01l.26,1.45.8.53v-1.72l-1.06-.26Zm2.65-8.58h-1.46l-.8-.66,1.46-.26,1.46-.13.13.92-.8.13Zm-1.06,7.52l-.13-.66-.79.26.26.53.66-.13Zm-.4,13.99l.4.79-.93.13.53-.92Zm.4-36.3l-.66.4.4-.79.66-.92-.4,1.32Zm-.53-30.89h.53l.66-.53-.53-.4-.27.53-.4.4Zm4.64,8.98l-.53-.79-.66-.92-1.06.66-.8-.66h-1.19l1.99,2.24,1.46-1.19.4.79.4-.13Zm-2.52,26.93l-1.06.4v1.06h-.4l-.27-1.06,1.46-1.06.26-1.32.53.13.66,1.45.93,2.51-2.39.4v-.66l.66-1.06-.4-.79Zm-1.19-14.65l-.26-.92.4-.26.53.79-.26.92-.4-.53Zm0-24.95l.27-.4-.13-.4-.13.26v.53Zm.13,0l.53,1.06,1.86-.4.79-.4-1.06-.13h-1.33l-.8-.13Zm.93,62.31l.66,1.45-.53.26-.4-1.32-.4-.66.66.26Zm-.4-75.64l.13.53.4-.4.4-.26h.66l-.53-.53-1.06.66Zm2.39,5.81l-1.06-.92h-1.06l.13.79.4.53-.4.13h.66l.66.26.66-.79Zm-1.86,38.15l-.26-.26.93-.26-.66.53Zm.8,19.8l-.53-1.19,1.19.13-.66,1.06Zm1.19-77.75l-1.59-.92,7.03-9.5,1.33-.92.79-1.45,6.1-6.86,2.65-1.19,1.46-.26h3.18l1.33.26,1.86-.26,1.59.4h1.59l2.39,1.19,1.19,1.06.93,1.32,2.12,2.11,1.72,2.64,1.33.66,7.96,10.69-1.59,1.32h-1.59l-3.18-.26-2.65-.26-2.39.4-5.04-.26-2.65-1.06-1.06-1.32-.8-1.58-1.33-.92-1.99-.26-3.31,4.09-4.24,1.45-1.72-.4-1.59.4-2.39-.13-1.46-.26-2.65.13h-3.31Zm-1.59,70.49l.53.13.13.53-.66-.13v-.53Zm.4-45.54v.79l.66-.26-.66-.53Zm.13,22.7l.13.92.93.26v-.92l-1.06-.26Zm1.06,47.65l.13,1.72-1.19-1.72h1.06Zm-.53-79.86l-.4.26v.4h.66l-.26-.66Zm.4,30.89v-.66l-.8-.79v.79l.8.66Zm.4,38.15l-.93.4.13.66.93-.4-.13-.66Zm-.26-34.06l.26.53.27.4v-.66l-.53-.79v.53Zm39.24,43.43l2.78-.92-.13-1.32-2.79-.53-2.78-.26-2.78.26-2.52-.13-2.78.26-2.78-.4-2.39.13-3.18-.13-2.12.26-8.22-.26-2.92-1.32-1.33-2.77-.13-2.64.27-2.51v-2.38l.27-2.9-.4-2.64.4-2.9-.4-2.51-.13-2.51.27-2.64v-2.77l1.06-2.51,2.65-1.32,2.79-.26,2.25.26,21.35.13,2.25-.92.4-1.58-2.92-.53-26.25-.13-2.52-1.06-.93-2.64.13-2.64-.53-2.9.27-2.51-.27-2.64.27-2.38-.13-10.56,1.33-2.38,2.39-1.45h2.65l2.65.26,23.87-.13,2.39-1.06-.27-1.32-3.84-.66-4.77-.26-12.2.4-2.78-.4h-10.61l-2.39,1.72-1.19,2.51-.26,2.51.4,2.77-.27,2.9.4,2.38-.27,13.33.27,2.9-.4,2.51.4,5.28-.4,2.64.4,2.77v18.61l-.27,2.77v5.02l1.33,2.51,2.78,1.45,5.3.26,2.65-.26,24.66.13Zm-29.96,4.36l-1.99-1.98-1.72-.4h-.8l-.53,1.72-1.46,1.72,1.46,1.06,1.59-1.85.53-1.19,1.33,1.58,1.46.79.13-1.45Zm-4.51-84.22h.53v-.79h-.53v.79Zm.66-21.12l.8,1.32,1.99-.92-.4-.13-.27-1.19-.93.92-.66.53-.13-.53-.26-.53-.13.53Zm10.08,87.65l-1.06-2.77-1.06-1.32-1.33-1.58,1.59-1.06-.13-1.85-1.46.4-.93-1.98-.66-.66,1.06-.13-1.19-3.56-.26-1.32.53-.26.93-.53.93,1.19-1.33,1.19.66.92h.53l.93-1.85-.66-1.98.27-.4,1.46-.79-.79-1.72-1.99,1.58-1.59.79-1.59.4-.8-.4-.26,1.19,1.33,1.72-1.06,2.9v2.9l.27,2.11-.53,1.85,1.99.92-.93.53-.4,2.9-.93,2.77.93,1.72,1.72-.13.66.66-.4.53-.4.92-.27,1.19,1.46.79h1.33l.8-1.06.79,1.85.4-.53h.66l.26-1.45h.4l1.06,1.58,1.59-.4h.66l.66-1.98-.4-1.45-1.86-1.19-1.06.92-.66-.53.93-2.11-.8-1.45Zm-7.29-46.99l-.26.53-.27.4.93-.53v-.79l-.66-.53h-.4v.53l.27-.26.4.66Zm1.99-4.22l.13-.79-1.19-.53-1.19-.4.93,1.06,1.33.66Zm-1.99,17.82l1.33-.13v-.92h-1.33v1.06Zm.13-55.97h.4v-.26h-.4v.26Zm.93,35.51l.8-.26.13-.53h-.53l-.93.79h.53Zm.27,10.3v-.92l-.66.4-.13.92.8-.4Zm-.27,32.21l-.4.53-.13-.66.53.13Zm-.26-81.18h.53l-.13-.4h-.4v.4Zm.13,86.33h.66l-.13.66-.66-.13.13-.53Zm0-2.24h.8l-.13.79-.66.13v-.92Zm.53-10.43l.4-.13h.26l1.33-1.06-1.06-1.19-1.33,1.19.4,1.19Zm.4-18.61h.79v-.66l-.4.13-.4.53Zm0,43.56l.93-.26v.66l-.93-.4Zm2.39,13.73l-.53-1.58-1.59-.66-.26.92,1.33.79,1.06.53Zm-2.25-114.32l.4,1.45.4.53,1.33-.26.53-.53v-.4l-.13.4-.53-.4-.66-.4-.53-.26.66-.66h1.06v-.92l-1.46.26-.4.53-.66.66Zm0,7.92l.66,1.19,1.72-.4,6.5-7.26-.8-1.19-2.78,1.58-5.3,6.07Zm0-3.7l.13.4.4-.4-.13-.4h-.4v.4Zm.4,90.03l-.13-.4.66-.13-.53.53Zm.4,3.04l.27.79-.8.26v-.92l.53-.13Zm.8-48.71l-.4,2.24.53.13.93-2.24.53-2.38-.4-.66-.27.26.27.4-.66.26-.8-.26.13-.26h-.53v.4l.66,2.11Zm2.25,63.76l-.66.13-.4-.26.13-.4-.4.4-.53-.53-.53-.13.4.53.66.13.4.66.93.13v-.66Zm-.4-19.67l.8.66-1.19.92-1.46-.13.13-.79,1.72-.66Zm-1.72-34.85l.79.13.13-1.06-.8.13-.13.79Zm1.46,41.45l.66.53-1.19.26-.93-.13,1.46-.66Zm1.19-39.73l-.13-.53.4-.4-.26-.26-1.33.66-.93,1.06-.13.53h.4l.66.4.8-1.32.93.66.93-.13-.4-.66h-.93Zm-.66-21.12h-.8l-.4.66.8.13.4-.79Zm-1.06-11.62l.66-.26.66-.13,1.06.13.26-.4-.4.26-.8-.4-1.19.26-.26.53Zm.4,65.21l-.4.53v-.53l.26-.26.13.26Zm-.13,4.49l1.06-.66-.13,1.19-.93-.53Zm.66-40.66l-.13.4.4.53v-.53l-.27-.4Zm2.65,22.97l-.93.79-1.33-1.06v-.53l-.4-.26-.13.4.53.4.66,1.19,1.33.13.27-1.06Zm-2.25-81.71l.26,1.58v.13l1.06-.13,1.06-1.06.93-.13.53,1.32.4-1.06-.93-1.19-1.59.53-.53-1.32-.4-.4v-.4l-.26.4-.27.92-.26.79Zm.53,2.64l-.27.79.66-.4.13-.66-.53.26Zm-.13,29.17l-.13.4.4.13.13-.53h-.4Zm1.59,13.07l-.93-.4-.66.4.66.53.93-.53Zm-.4,34.19l.13-.53h-.79v.79l.66-.26Zm.4,37.49h-.4l-.13.66.53-.13v-.53Zm.4-70.23l-.26-.4-.53.26.79.13Zm1.19,57.69l-1.86-.13.53-.92.53-.79.79,1.85Zm-1.72-105.08l.8-.4.4-.92-.79.4-.4.92Zm2.65,81.31l-.13-.53-.53-.13.4-.79-.27.26-.93.4-.66.53.66.66,1.46-.4Zm-1.46,0l-.66-.26.66-.26.93.26-.93.26Zm1.19,33l-.27-.26h-.79l-.66,1.06.13,1.72.4.92.53-.53-.4-1.72v-1.45l.66.4.4-.13Zm-.66-101.64v-.26l-.13.26-.13.53.26-.53Zm1.72,63.89l-.53-.66-.53.26.13.53.93.53v-.66Zm.13-73.92l.4.13v-.66l-.4.13v.4Zm0,2.64l.13.4.4-.13-.27-.26h-.26Zm0,5.15l.26.66h.66l.27-.92-1.19.26Zm.79-10.96l.4,1.19.79.4-.13-.79-.4-.4-.66-.4Zm0,105.08h1.33l.93.79.4-.4-.66-1.19-1.72-.26-.27,1.06Zm1.59-102.04h-.66l.53.53.26.53-.26.4-.53.26-.66.66.8.53.79.26h.27l-.27-.13-.26-.53.26-.53,1.19-.4v-1.32l-1.46-.26Zm1.06,115.11l-1.06-.53-1.33.79v.53l.27-.53h.93l1.19-.26Zm1.19-108.64l.53-.79-.53-1.32-.8.26-1.33.26h-.53l.4.53-.27.92-.4.66.79,1.06.66-.26.66-.66.8-.66Zm-1.19-.66l.26.66-.66.53-.4-.53.8-.66Zm-.66-8.05h.13l.13-.26-.27-.13v.4Zm2.65,79.73l-.66-1.58h.53l-.53-.92-1.19.92v1.19l-.53.13h.66l.53-.4.8,1.06.4-.4Zm-2.25,23.1h.4l.26-.26-.53-.13-.13.4Zm.4-101.51l.13.4.53-.13-.13-.26h-.53Zm.4-1.98h.66l.53.4,1.59.53.66.4-1.19.26.26.92,1.06.13.13-.4.66-.4.8-.53v-.26h-.93l-1.46-.53-.53-.66.13-.92-.8.13-.8.4-.79.53Zm.13,104.55l.13,1.06.93.4-.27-1.19-.79-.26Zm.93-61.51l-.4-.4-.4-.26.27.26.53.4Zm.8,75.37l-.53-.4v-1.19l-.66-.66-.13.79.4,1.06.53.66.4-.26Zm6.5-107.19l-4.11-5.15-3.05-1.32-.53,1.06,5.83,6.47h1.46l.4-1.06Zm-6.89-.92l-.13-.13-.27.26h.27l.13-.13Zm.53,96.1l.13.13.13-.79-.13-.4-.13.26v.79Zm2.12-94.12l-.27-.4h-.26l-.53.4-.93.13.4.66.66.66.53-.79.27-.53.13-.13Zm-1.46-1.58l.13-.53-.53.53.26.4.13-.4Zm0,95.97l-.26-.13.66.4,1.19-1.85-.13-1.58-.53-.13v1.58l-.93,1.72Zm1.06-94.65l.27.26-.27.13v-.4Zm.8-7.66l.26-.13v-.26h-.4l.13.4Zm1.06,100.59l.53.13.4-.13-.4-.13-.53.13Zm.13-102.57l.13.66.79-.13-.13-.53h-.79Zm1.33,2.51l.27-.13v-.26l-.27.13v.26Zm.53-1.45l.93.92v.79l-.8.92,1.19-.4.53-.53-.66-1.32-.66-.66-.53.26Zm.53,112.86l-.4.13-.13.53h.53v-.66Zm.4-9.9l.13.26.13-.4-.26-.53h1.06l.66-.92-1.06-.13-.66,1.06v.66Zm1.46,10.69l-.4-.53-.66.66.66.53.4-.4v-.26Zm-.93-85.41l.26.26.13-.53-.4-.4v.66Zm.8,83.69l.53.13-.27-.66h-.53l.27.53Zm.26-105.21l.4-.13-.13-.26-.27.13v.26Zm.27,56.37l.93.13.13-.92-1.06-.13v.92Zm1.46-57.16h.4v-.53l-.4.13v.4Zm2.92,69.57l-1.46-.66.13.53.66.66.66-.53Zm-1.33,27.33h.53v-.53l-.26.26-.27-.26v.53Zm1.99,12.01l-.53-1.06h-1.19l.4.79,1.06.53.27-.26Zm-1.46-51.75l1.06-.4.13-.66-.93.13-.27.92Zm1.19-54.39l.13-.26-.13.13v.13Zm1.06,104.94l.4-.66.4-.53.53.4.13-.4-.13-.26-.53-.13-.4.4h-.93l-.13.79.66.4Zm-.13-14.12l.66.66.53-.26.4.26-.53-.79-1.06.13Zm2.39,15.05l.27-.66.66.13-.66-.26-2.12,1.32,1.06.13,1.33.4.13.4v-.4l-.66-1.06Zm-1.59-45.15l.27,1.06.93,1.32.53-1.45-.66-1.45-.4.4-.66.13Zm2.78,6.34l-.4-.26-1.06-.66-.4-1.58-.79-.13-.13,1.32.53,1.19v.66l.8.13.93-.4.53-.26Zm-1.86,25.48l-.13.4.4.26.13-.4-.4-.26Zm.53-70.49l.13.53.27.26v-.79h-.4Zm0,35.77l.13.92.93-.13-.4-.53-.66-.26Zm1.59,44.62l-.93-.79-.53.26.8,1.45.66-.92Zm-.27-36.96l-.53-.26-.13.4.66.26v-.4Zm.4-8.05h.8l.4-.4-.26-.26-.66.4-.27.26Zm1.72,44.49l1.99-.92-.27-1.32-.26.92h-1.33l.13.4-.53.26h-.66l-.26.26,1.19.4Zm-.79-9.9l1.33,1.06h1.72l-.79-.92-1.33-.53-.4-.26-.53.66Zm3.71,11.35l-.26-.66-1.33,1.06-1.33.92h-.4l-.13-.4-.13.4.79.66.93.79.4-.26-.4-.13-.4-.53,1.33-.4.93-1.45Zm-2.52-5.28l-.27-.66h-.4v.53l.66.13Zm0,1.32l.4.13.13-.53-.53-.13v.53Zm1.99-.4l.4-1.32-.27-.79-.93-.13-.53-.4v.66l.53,1.32.26.92.53-.26Zm-.79-70.75l.53.26.13-.53-.4-.4-.26.66Zm1.86,67.85l-.26-.66h-.93l.4.66h.79Z"/></svg>