<svg width="56" height="55" viewBox="0 0 56 55" fill="none" xmlns="http://www.w3.org/2000/svg">
<path id="Vector" d="M28 0C12.6 0 0 12.3971 0 27.6657C0 41.4709 10.248 52.9292 23.632 55V35.6727H16.52V27.6657H23.632V21.5638C23.632 14.6335 27.804 10.8233 34.216 10.8233C37.268 10.8233 40.46 11.3479 40.46 11.3479V18.1677H36.932C33.46 18.1677 32.368 20.2937 32.368 22.4749V27.6657H40.152L38.892 35.6727H32.368V55C38.966 53.9725 44.9741 50.6528 49.3077 45.6402C53.6414 40.6277 56.0149 34.2525 55.9999 27.6657C55.9999 12.3971 43.3999 0 28 0Z" fill="white"/>
</svg>
