<svg width="55" height="55" viewBox="0 0 55 55" fill="none" xmlns="http://www.w3.org/2000/svg">
<path id="Vector" d="M27.5 15.2778C25.0827 15.2778 22.7196 15.9946 20.7097 17.3376C18.6998 18.6806 17.1332 20.5894 16.2081 22.8228C15.2831 25.0561 15.041 27.5136 15.5126 29.8844C15.9842 32.2553 17.1483 34.4331 18.8576 36.1424C20.5669 37.8517 22.7447 39.0158 25.1156 39.4874C27.4864 39.959 29.9439 39.7169 32.1772 38.7919C34.4106 37.8668 36.3194 36.3002 37.6624 34.2903C39.0054 32.2804 39.7222 29.9173 39.7222 27.5C39.7189 24.2595 38.4301 21.1527 36.1387 18.8613C33.8473 16.5699 30.7405 15.2811 27.5 15.2778ZM27.5 33.6111C26.2913 33.6111 25.1098 33.2527 24.1048 32.5812C23.0999 31.9097 22.3166 30.9553 21.8541 29.8386C21.3915 28.722 21.2705 27.4932 21.5063 26.3078C21.7421 25.1223 22.3241 24.0334 23.1788 23.1788C24.0334 22.3241 25.1223 21.7421 26.3078 21.5063C27.4932 21.2705 28.722 21.3915 29.8386 21.8541C30.9553 22.3166 31.9097 23.0999 32.5812 24.1048C33.2527 25.1098 33.6111 26.2913 33.6111 27.5C33.6111 29.1208 32.9673 30.6752 31.8212 31.8212C30.6752 32.9673 29.1208 33.6111 27.5 33.6111ZM39.7222 0H15.2778C11.2273 0.0047173 7.34409 1.61585 4.47997 4.47997C1.61585 7.34409 0.0047173 11.2273 0 15.2778V39.7222C0.0047173 43.7727 1.61585 47.6559 4.47997 50.52C7.34409 53.3842 11.2273 54.9953 15.2778 55H39.7222C43.7727 54.9953 47.6559 53.3842 50.52 50.52C53.3842 47.6559 54.9953 43.7727 55 39.7222V15.2778C54.9953 11.2273 53.3842 7.34409 50.52 4.47997C47.6559 1.61585 43.7727 0.0047173 39.7222 0ZM48.8889 39.7222C48.8889 42.1534 47.9231 44.485 46.204 46.204C44.485 47.9231 42.1534 48.8889 39.7222 48.8889H15.2778C12.8466 48.8889 10.515 47.9231 8.79597 46.204C7.07688 44.485 6.11111 42.1534 6.11111 39.7222V15.2778C6.11111 12.8466 7.07688 10.515 8.79597 8.79597C10.515 7.07688 12.8466 6.11111 15.2778 6.11111H39.7222C42.1534 6.11111 44.485 7.07688 46.204 8.79597C47.9231 10.515 48.8889 12.8466 48.8889 15.2778V39.7222ZM44.8148 14.2593C44.8148 15.065 44.5759 15.8527 44.1282 16.5227C43.6805 17.1927 43.0443 17.7149 42.2998 18.0232C41.5554 18.3316 40.7362 18.4123 39.9459 18.2551C39.1556 18.0979 38.4297 17.7098 37.8599 17.1401C37.2902 16.5703 36.9021 15.8444 36.7449 15.0541C36.5877 14.2638 36.6684 13.4446 36.9768 12.7002C37.2851 11.9557 37.8073 11.3195 38.4773 10.8718C39.1473 10.4241 39.935 10.1852 40.7407 10.1852C41.8213 10.1852 42.8575 10.6144 43.6215 11.3785C44.3856 12.1425 44.8148 13.1787 44.8148 14.2593Z" fill="white"/>
</svg>
