<svg width="55" height="55" viewBox="0 0 55 55" fill="none" xmlns="http://www.w3.org/2000/svg">
<path id="Vector" d="M55 6.47059C52.9756 7.60294 50.7935 8.34706 48.5325 8.70294C50.8461 6.98824 52.6339 4.27059 53.4752 1.00294C51.293 2.62059 48.8743 3.75294 46.3241 4.4C44.2471 1.61765 41.3289 0 38.0163 0C31.838 0 26.7902 6.21176 26.7902 13.8794C26.7902 14.9794 26.8953 16.0471 27.0794 17.05C17.7199 16.4676 9.38576 10.9353 3.83843 2.55588C2.86568 4.59412 2.31358 6.98824 2.31358 9.51176C2.31358 14.3324 4.28537 18.6029 7.33509 21.0294C5.46845 21.0294 3.73327 20.3824 2.20841 19.4118V19.5088C2.20841 26.2382 6.09943 31.8676 11.2524 33.1294C9.59799 33.6866 7.86115 33.7641 6.1783 33.3559C6.89237 36.1139 8.29085 38.5272 10.1771 40.2565C12.0634 41.9859 14.3427 42.9443 16.6946 42.9971C12.7079 46.8808 7.76624 48.9801 2.68164 48.95C1.78776 48.95 0.893882 48.8853 0 48.7559C4.99522 52.7029 10.9369 55 17.2992 55C38.0163 55 49.4001 33.8412 49.4001 15.4971C49.4001 14.8824 49.4001 14.3 49.3738 13.6853C51.5822 11.7441 53.4751 9.28529 55 6.47059Z" fill="white"/>
</svg>
